<?xml version="1.0" encoding="UTF-8"?>
<svg width="140px" height="36px" viewBox="0 0 140 36" version="1.1" xmlns="http://www.w3.org/2000/svg" xmlns:xlink="http://www.w3.org/1999/xlink">
    <!-- Generator: Sketch 50.2 (55047) - http://www.bohemiancoding.com/sketch -->
    <title>Logo-Main-Version</title>
    <desc>Created with Sketch.</desc>
    <defs></defs>
    <g id="#Brand-design" stroke="none" stroke-width="1" fill="none" fill-rule="evenodd">
        <g id="Logo-prismic" transform="translate(-177.000000, -119.000000)">
            <g id="Logo-Main-Version" transform="translate(177.000000, 119.000000)">
                <path d="M46.2135951,10.3838812 L47.0826266,10.3838812 C47.6756153,10.3838812 48.1563275,10.8645935 48.1563275,11.4575822 L48.1563275,12.4742112 C48.1563275,12.5057312 48.1818795,12.5312831 48.2133995,12.5312831 C48.7080256,11.6564113 49.3738585,11.0201505 50.2109181,10.6224814 C51.0479777,10.2248124 51.9516081,10.0259809 52.9218362,10.0259809 C53.9681607,10.0259809 54.9098387,10.2198416 55.7468983,10.6075689 C56.5839579,10.9952962 57.2973502,11.5271705 57.8870968,12.2032078 C58.4768433,12.8792452 58.9239025,13.6745712 59.2282878,14.58921 C59.5326732,15.5038487 59.6848635,16.4880647 59.6848635,17.5418876 C59.6848635,18.5957105 59.5231613,19.5799265 59.1997519,20.4945652 C58.8763425,21.4092039 58.4245273,22.20453 57.8442928,22.8805673 C57.2640583,23.5566047 56.5649338,24.088479 55.7468983,24.4762063 C54.9288627,24.8639335 54.0347443,25.0577943 53.0645161,25.0577943 C52.4176973,25.0577943 51.8469834,24.9882032 51.3523573,24.8490191 C50.8577312,24.7098349 50.4201839,24.5308866 50.0397022,24.3121686 C49.6592206,24.0934507 49.3358161,23.8598236 49.0694789,23.6112805 C48.8031418,23.3627374 48.5843681,23.1191687 48.4131514,22.8805673 L48.4131514,22.8805673 C48.3658714,22.8805673 48.3275434,22.9188953 48.3275434,22.9661753 L48.3275434,30.1896307 C48.3275434,30.9133277 47.7408711,31.5 47.0171741,31.5 L46.2135951,31.5 C45.4898981,31.5 44.9032258,30.9133277 44.9032258,30.1896307 L44.9032258,11.6942505 C44.9032258,10.9705536 45.4898981,10.3838812 46.2135951,10.3838812 Z M56.2605459,17.5418876 C56.2605459,16.985151 56.1701829,16.4483059 55.9894541,15.9313362 C55.8087253,15.4143665 55.5423922,14.957054 55.1904467,14.5593849 C54.8385011,14.1617159 54.4152217,13.8435855 53.9205955,13.6049841 C53.4259694,13.3663827 52.8647674,13.2470838 52.2369727,13.2470838 C51.609178,13.2470838 51.047976,13.3663827 50.5533499,13.6049841 C50.0587237,13.8435855 49.6354443,14.1617159 49.2834988,14.5593849 C48.9315532,14.957054 48.6652201,15.4143665 48.4844913,15.9313362 C48.3037625,16.4483059 48.2133995,16.985151 48.2133995,17.5418876 C48.2133995,18.0986242 48.3037625,18.6354693 48.4844913,19.152439 C48.6652201,19.6694087 48.9315532,20.1267212 49.2834988,20.5243902 C49.6354443,20.9220593 50.0587237,21.2401897 50.5533499,21.4787911 C51.047976,21.7173925 51.609178,21.8366914 52.2369727,21.8366914 C52.8647674,21.8366914 53.4259694,21.7173925 53.9205955,21.4787911 C54.4152217,21.2401897 54.8385011,20.9220593 55.1904467,20.5243902 C55.5423922,20.1267212 55.8087253,19.6694087 55.9894541,19.152439 C56.1701829,18.6354693 56.2605459,18.0986242 56.2605459,17.5418876 Z M64.6193023,10.3838812 L65.5998996,10.3838812 C66.2258321,10.3838812 66.7332506,10.8912998 66.7332506,11.5172322 L66.7332506,12.5935113 C66.7332506,12.6250313 66.7588026,12.6505832 66.7903226,12.6505832 C67.1708042,11.8154783 67.7129824,11.1692759 68.4168735,10.7119565 C69.1207645,10.2546372 69.9292758,10.0259809 70.8424318,10.0259809 C71.0516967,10.0259809 71.2562025,10.0458641 71.4559553,10.085631 C71.4559553,10.085631 71.4559553,10.085631 71.4559553,10.085631 L71.4559553,10.085631 C71.8126166,10.1566353 72.0694727,10.469667 72.0694727,10.8333274 L72.0694846,12.7969178 C72.0694846,13.1918084 71.7493625,13.5119304 71.3544719,13.5119304 C71.3119509,13.5119304 71.2695145,13.5081374 71.2276675,13.5005965 C71.2276675,13.5005965 71.2276675,13.5005965 71.2276675,13.5005965 C70.9518183,13.4508879 70.6807292,13.4260339 70.4143921,13.4260339 C69.6153806,13.4260339 68.9733275,13.5801284 68.4882134,13.8883218 C68.0030993,14.1965153 67.6321353,14.5494413 67.3753102,14.9471103 C67.1184851,15.3447793 66.9472709,15.7424423 66.8616625,16.1401113 C66.7760542,16.5377804 66.7332506,16.8360276 66.7332506,17.0348621 L66.7332506,23.3895246 C66.7332506,24.1132216 66.1465783,24.699894 65.4228813,24.699894 L64.6193023,24.699894 C63.8956053,24.699894 63.308933,24.1132216 63.308933,23.3895246 L63.308933,11.6942505 C63.308933,10.9705536 63.8956053,10.3838812 64.6193023,10.3838812 Z M76.2049102,10.3838812 L77.0084893,10.3838812 C77.7321862,10.3838812 78.3188586,10.9705536 78.3188586,11.6942505 L78.3188586,23.3895246 C78.3188586,24.1132216 77.7321862,24.699894 77.0084893,24.699894 L76.2049102,24.699894 C75.4812133,24.699894 74.8945409,24.1132216 74.8945409,23.3895246 L74.8945409,11.6942505 C74.8945409,10.9705536 75.4812133,10.3838812 76.2049102,10.3838812 Z M74.4094293,5.52240191 C74.4094293,4.94578185 74.6139351,4.44373225 75.0229529,4.01623807 C75.4319706,3.58874389 75.9503691,3.375 76.5781638,3.375 C77.2059585,3.375 77.7338688,3.57880231 78.1619107,3.98641304 C78.5899525,4.39402378 78.8039702,4.90601495 78.8039702,5.52240191 C78.8039702,6.13878887 78.5899525,6.65078004 78.1619107,7.05839077 C77.7338688,7.46600151 77.2059585,7.66980382 76.5781638,7.66980382 C75.9503691,7.66980382 75.4319706,7.45605993 75.0229529,7.02856575 C74.6139351,6.60107156 74.4094293,6.09902197 74.4094293,5.52240191 Z M89.1626414,13.6554747 C88.467851,13.1446139 87.8495346,12.8891835 87.3076923,12.8891835 C86.8511143,12.8891835 86.4040551,13.0084824 85.9665012,13.2470838 C85.5289474,13.4856852 85.3101737,13.8734066 85.3101737,14.4102598 C85.3101737,14.8476957 85.4908998,15.1658262 85.8523573,15.3646607 C86.2138149,15.5634952 86.670386,15.732502 87.2220844,15.8716861 C87.7737827,16.0108703 88.3682764,16.1550231 89.0055831,16.304149 C89.6428899,16.4532749 90.2373835,16.6819311 90.7890819,16.9901246 C91.3407803,17.2983181 91.7973514,17.7208351 92.1588089,18.2576882 C92.5202665,18.7945414 92.7009926,19.530218 92.7009926,20.4647402 C92.7009926,21.3197286 92.5250224,22.0404928 92.1730769,22.6270546 C91.8211314,23.2136164 91.3645603,23.6858413 90.8033499,24.0437434 C90.2421395,24.4016455 89.6095982,24.6601265 88.9057072,24.8191941 C88.2018162,24.9782617 87.4979357,25.0577943 86.7940447,25.0577943 C85.7286961,25.0577943 84.7489706,24.8987291 83.8548387,24.5805938 C83.5047017,24.4560139 83.0845517,24.2056616 82.5943886,23.8295371 L82.5944052,23.8295155 C82.0202748,23.3889591 81.9119918,22.5663929 82.3525483,21.9922626 C82.390073,21.9433606 82.4310016,21.8971674 82.4750292,21.854027 L82.8302371,21.5060012 C83.3204172,21.0256985 84.0981426,21.0049619 84.6132208,21.4584611 C84.8209013,21.6413129 85.0009029,21.7823021 85.1532258,21.881429 C85.657364,22.2095059 86.2708814,22.3735419 86.9937965,22.3735419 C87.2411096,22.3735419 87.4979308,22.3437172 87.764268,22.2840668 C88.0306051,22.2244165 88.2779145,22.1250007 88.5062035,21.9858165 C88.7344925,21.8466324 88.9199745,21.6726548 89.0626551,21.4638786 C89.2053357,21.2551023 89.2766749,21.0115337 89.2766749,20.7331654 C89.2766749,20.2360792 89.0959489,19.8682409 88.7344913,19.6296394 C88.3730338,19.391038 87.9164626,19.1971773 87.3647643,19.0480514 C86.8130659,18.8989256 86.2185723,18.7597435 85.5812655,18.6305011 C84.9439588,18.5012586 84.3494651,18.2924855 83.7977667,18.0041755 C83.2460684,17.7158655 82.7894973,17.3132316 82.4280397,16.7962619 C82.0665821,16.2792922 81.8858561,15.5634987 81.8858561,14.64886 C81.8858561,13.853522 82.0428024,13.1625825 82.3566998,12.5760207 C82.6705971,11.9894589 83.0843647,11.5072925 83.5980149,11.1295069 C84.1116651,10.7517213 84.7014028,10.4733572 85.3672457,10.2944062 C86.0330885,10.1154551 86.7084333,10.0259809 87.3933002,10.0259809 C88.3064562,10.0259809 89.2100865,10.1900169 90.1042184,10.5180938 C90.4279854,10.6368912 90.7891674,10.8568749 91.1877643,11.178045 L91.1877471,11.1780663 C91.7512633,11.6321203 91.8399998,12.4570239 91.3859458,13.0205401 C91.3481865,13.0674022 91.3072436,13.1116074 91.263408,13.1528417 L90.8366477,13.5542258 C90.3761415,13.9874035 89.6719994,14.0299921 89.1626414,13.6554747 Z M96.9505678,10.3838812 L97.5829309,10.3838812 C98.3066279,10.3838812 98.8933002,10.9705536 98.8933002,11.6942505 L98.8933002,12.6207582 C99.2547575,11.9447209 99.7446203,11.3432556 100.419975,10.8163441 C101.09533,10.2894327 102.003716,10.0259809 103.145161,10.0259809 C105.294883,10.0259809 106.721667,10.9107812 107.425558,12.6804083 C107.920184,11.7657696 108.538458,11.0947132 109.280397,10.667219 C110.022336,10.2397248 110.906943,10.0259809 111.934243,10.0259809 C112.847399,10.0259809 113.617863,10.1850461 114.245658,10.5031813 C114.873452,10.8213165 115.382339,11.2587459 115.772333,11.8154825 C116.162326,12.3722191 116.442927,13.0233923 116.614144,13.7690217 C116.785361,14.5146511 116.870968,15.314948 116.870968,16.1699364 L116.870968,23.3895246 C116.870968,24.1132216 116.284295,24.699894 115.560598,24.699894 L114.757019,24.699894 C114.033322,24.699894 113.44665,24.1132216 113.44665,23.3895246 L113.44665,16.5874867 C113.44665,16.1500508 113.408603,15.7275339 113.332506,15.3199231 C113.25641,14.9123124 113.123243,14.5544156 112.933002,14.2462222 C112.742762,13.9380287 112.48594,13.6944601 112.162531,13.515509 C111.839122,13.336558 111.420598,13.2470838 110.906948,13.2470838 C110.374274,13.2470838 109.922458,13.3514703 109.551489,13.5602466 C109.180519,13.7690228 108.876138,14.0473869 108.638337,14.3953473 C108.400536,14.7433077 108.229322,15.1409707 108.12469,15.5883484 C108.020057,16.035726 107.967742,16.4880677 107.967742,16.9453871 L107.967742,23.3895246 C107.967742,24.1132216 107.38107,24.699894 106.657373,24.699894 L105.853794,24.699894 C105.130097,24.699894 104.543424,24.1132216 104.543424,23.3895246 L104.543424,16.1699364 C104.543424,15.2751811 104.362698,14.5643584 104.001241,14.037447 C103.639783,13.5105355 103.040534,13.2470838 102.203474,13.2470838 C101.632751,13.2470838 101.152401,13.3464995 100.762407,13.545334 C100.372413,13.7441685 100.049009,14.0125911 99.7921836,14.3506098 C99.5353585,14.6886284 99.3498765,15.0763499 99.235732,15.5137858 C99.1215875,15.9512217 99.0645161,16.4085342 99.0645161,16.885737 L99.0645161,23.3895246 C99.0645161,24.1132216 98.4778438,24.699894 97.7541468,24.699894 L96.9505678,24.699894 C96.2268708,24.699894 95.6401985,24.1132216 95.6401985,23.3895246 L95.6401985,11.6942505 C95.6401985,10.9705536 96.2268708,10.3838812 96.9505678,10.3838812 Z M122.404662,10.3838812 L123.208241,10.3838812 C123.931938,10.3838812 124.51861,10.9705536 124.51861,11.6942505 L124.51861,23.3895246 C124.51861,24.1132216 123.931938,24.699894 123.208241,24.699894 L122.404662,24.699894 C121.680965,24.699894 121.094293,24.1132216 121.094293,23.3895246 L121.094293,11.6942505 C121.094293,10.9705536 121.680965,10.3838812 122.404662,10.3838812 Z M120.609181,5.52240191 C120.609181,4.94578185 120.813687,4.44373225 121.222705,4.01623807 C121.631722,3.58874389 122.150121,3.375 122.777916,3.375 C123.40571,3.375 123.933621,3.57880231 124.361663,3.98641304 C124.789704,4.39402378 125.003722,4.90601495 125.003722,5.52240191 C125.003722,6.13878887 124.789704,6.65078004 124.361663,7.05839077 C123.933621,7.46600151 123.40571,7.66980382 122.777916,7.66980382 C122.150121,7.66980382 121.631722,7.45605993 121.222705,7.02856575 C120.813687,6.60107156 120.609181,6.09902197 120.609181,5.52240191 Z M137.3605,13.8949231 C137.219589,13.7846453 137.095701,13.6979407 136.988834,13.6348091 C136.55128,13.3763243 136.104221,13.2470838 135.647643,13.2470838 C135.019848,13.2470838 134.458646,13.3663827 133.96402,13.6049841 C133.469394,13.8435855 133.046114,14.1617159 132.694169,14.5593849 C132.342223,14.957054 132.07589,15.4143665 131.895161,15.9313362 C131.714433,16.4483059 131.624069,16.985151 131.624069,17.5418876 C131.624069,18.0986242 131.714433,18.6354693 131.895161,19.152439 C132.07589,19.6694087 132.342223,20.1267212 132.694169,20.5243902 C133.046114,20.9220593 133.469394,21.2401897 133.96402,21.4787911 C134.458646,21.7173925 135.019848,21.8366914 135.647643,21.8366914 C136.180317,21.8366914 136.674936,21.7223633 137.131514,21.4937036 C137.223835,21.447468 137.324031,21.3846178 137.432103,21.3051531 L137.432115,21.3051687 C137.977068,20.9044667 138.737463,20.9844084 139.187169,21.4896807 L139.707608,22.0744805 C140.165725,22.5892028 140.119837,23.3778449 139.605115,23.8359619 C139.541978,23.892155 139.473295,23.9417871 139.400124,23.9840933 C139.400124,23.9840933 139.400124,23.9840933 139.400124,23.9840933 C138.953058,24.2425782 138.501243,24.4513513 138.044665,24.6104189 C137.588087,24.7694865 137.15054,24.8838146 136.73201,24.9534067 C136.31348,25.0229988 135.952028,25.0577943 135.647643,25.0577943 C134.620342,25.0577943 133.650129,24.8788459 132.736973,24.5209438 C131.823817,24.1630417 131.034329,23.6560213 130.368486,22.9998674 C129.702643,22.3437136 129.174733,21.5533583 128.784739,20.6287778 C128.394746,19.7041974 128.199752,18.6752443 128.199752,17.5418876 C128.199752,16.4085309 128.394746,15.3795778 128.784739,14.4549973 C129.174733,13.5304169 129.702643,12.7400616 130.368486,12.0839077 C131.034329,11.4277539 131.823817,10.9207335 132.736973,10.5628314 C133.650129,10.2049293 134.620342,10.0259809 135.647643,10.0259809 C136.52275,10.0259809 137.402601,10.1999585 138.287221,10.5479189 C138.624332,10.6805196 139.022048,10.9176114 139.480371,11.2591941 L139.480372,11.2591931 C140.060639,11.6916602 140.180455,12.512644 139.747988,13.0929116 C139.715916,13.1359447 139.68123,13.1769668 139.644127,13.2157459 L139.114901,13.768884 C138.649362,14.2554531 137.890811,14.3099486 137.3605,13.8949231 Z" id="prismic.io" fill="#040D3A"></path>
                <g id="symbol">
                    <path d="M35.5383104,18.7399016 L32.8834878,16.0793573 C32.6730329,15.868449 32.5548387,15.5826679 32.5548387,15.284719 L32.5548387,12.0281125 C32.5548387,9.0192368 32.242226,7.92814575 31.6552047,6.82814575 C31.0681834,5.72814575 30.2067535,4.86485931 29.1091191,4.27657288 C28.0114847,3.68828644 26.9227401,3.375 23.920335,3.375 L19.6262432,3.375 C19.5019791,3.375 19.4012432,3.27426407 19.4012432,3.15 C19.4012432,3.09041021 19.424882,3.033254 19.466973,2.99107232 L22.1219617,0.330361623 C22.3330094,0.118859158 22.6195245,1.16510953e-15 22.9183127,1.11022302e-15 L24.409909,0 C28.4131158,0 29.8647753,0.41771525 31.3282878,1.20209717 C32.7918003,1.98647908 33.9403736,3.13752767 34.7230686,4.60419433 C35.5057637,6.070861 35.9225806,7.52564907 35.9225806,11.5374834 L35.9225806,18.580974 C35.9225806,18.705238 35.8218447,18.805974 35.6975806,18.805974 C35.637823,18.805974 35.58052,18.7822021 35.5383104,18.7399016 Z" id="Combined-Shape" fill="#E55737"></path>
                    <path d="M17.2218117,35.6160723 L19.8768004,32.9553616 C20.0878481,32.7438592 20.3743632,32.625 20.6731514,32.625 L23.920335,32.625 C26.9227401,32.625 28.0114847,32.3117136 29.1091191,31.7234271 C30.2067535,31.1351407 31.0681834,30.2718542 31.6552047,29.1718542 C32.242226,28.0718542 32.5548387,26.9807632 32.5548387,23.9718875 L32.5548387,19.669026 C32.5548387,19.544762 32.6555746,19.444026 32.7798387,19.444026 C32.8395964,19.444026 32.8968994,19.4677979 32.9391089,19.5100984 L35.5939316,22.1706427 C35.8043864,22.381551 35.9225806,22.6673321 35.9225806,22.965281 L35.9225806,24.4625166 C35.9225806,28.4743509 35.5057637,29.929139 34.7230686,31.3958057 C33.9403736,32.8624723 32.7918003,34.0135209 31.3282878,34.7979028 C29.8647753,35.5822847 28.4131158,36 24.409909,36 L17.3810819,36 C17.2568178,36 17.1560819,35.8992641 17.1560819,35.775 C17.1560819,35.7154102 17.1797207,35.658254 17.2218117,35.6160723 Z" id="Combined-Shape" fill="#F6C943"></path>
                    <path d="M0.384270198,17.2600984 L3.03909289,19.9206427 C3.24954771,20.131551 3.36774194,20.4173321 3.36774194,20.715281 L3.36774194,23.9718875 C3.36774194,26.9807632 3.68035464,28.0718542 4.26737594,29.1718542 C4.85439725,30.2718542 5.71582716,31.1351407 6.81346157,31.7234271 C7.91109597,32.3117136 8.99984059,32.625 12.0022456,32.625 L16.2963375,32.625 C16.4206015,32.625 16.5213375,32.7257359 16.5213375,32.85 C16.5213375,32.9095898 16.4976986,32.966746 16.4556076,33.0089277 L13.8006189,35.6696384 C13.5895713,35.8811408 13.3030562,36 13.004268,36 L11.5126716,36 C7.50946488,36 6.05780539,35.5822847 4.59429284,34.7979028 C3.1307803,34.0135209 1.98220709,32.8624723 1.19951201,31.3958057 C0.416816938,29.929139 1.99410381e-15,28.4743509 0,24.4625166 L4.16333634e-16,17.419026 C4.01115675e-16,17.294762 0.100735933,17.194026 0.225000003,17.194026 C0.284757645,17.194026 0.342060673,17.2177979 0.384270198,17.2600984 Z" id="Combined-Shape" fill="#7B8FEC"></path>
                    <path d="M18.7007689,0.383927681 L16.0457802,3.04463838 C15.8347326,3.25614084 15.5482174,3.375 15.2494292,3.375 L12.0022456,3.375 C8.99984059,3.375 7.91109597,3.68828644 6.81346157,4.27657288 C5.71582716,4.86485931 4.85439725,5.72814575 4.26737594,6.82814575 C3.68035464,7.92814575 3.36774194,9.0192368 3.36774194,12.0281125 L3.36774194,16.330974 C3.36774194,16.455238 3.267006,16.555974 3.14274193,16.555974 C3.08298429,16.555974 3.02568126,16.5322021 2.98347174,16.4899016 L0.328649041,13.8293573 C0.118194228,13.618449 -1.68920979e-16,13.3326679 -2.05409201e-16,13.034719 L9.04813823e-16,11.5374834 C1.69436677e-16,7.52564907 0.416816938,6.070861 1.19951201,4.60419433 C1.98220709,3.13752767 3.1307803,1.98647908 4.59429284,1.20209717 C6.05780539,0.41771525 7.50946488,2.22044605e-16 11.5126716,2.22044605e-16 L18.5414987,-1.47104551e-15 C18.6657628,-1.49387245e-15 18.7664987,0.100735933 18.7664987,0.225000003 C18.7664987,0.284589793 18.7428599,0.341746005 18.7007689,0.383927681 Z" id="Combined-Shape" fill="#D77EE9"></path>
                    <path d="M29.9290454,13.1354376 L26.3088035,9.6680357 C26.0693435,9.42805963 25.7892499,9.25362339 25.4907174,9.14472697 C25.2438837,9.05119046 24.9762942,9 24.6967742,9 L14.0108276,9 C13.8865635,9 13.7858276,8.89926407 13.7858276,8.775 C13.7858276,8.71537741 13.8094924,8.6581925 13.8516243,8.61600533 L16.5091155,5.95502666 C16.7201362,5.74372906 17.0065079,5.625 17.3051321,5.625 L25.8193548,5.625 C28.2992915,5.625 30.3096774,7.63971863 30.3096774,10.125 L30.3096774,12.9729455 C30.3096774,13.0972096 30.2089415,13.1979455 30.0846774,13.1979455 C30.026683,13.1979455 29.9709283,13.1755522 29.9290454,13.1354376 Z" id="Combined-Shape" fill="#E55737"></path>
                    <path d="M22.8142754,29.9975588 L26.2753364,26.3683445 C26.5147964,26.1283684 26.6888575,25.8476711 26.7975198,25.5484953 C26.8908551,25.3011296 26.9419355,25.0329634 26.9419355,24.752841 L26.9419355,14.0443502 C26.9419355,13.9200862 27.0426714,13.8193502 27.1669355,13.8193502 C27.2267259,13.8193502 27.2840576,13.8431481 27.3262725,13.8854896 L29.9813626,16.5485416 C30.1916129,16.7594224 30.3096774,17.04506 30.3096774,17.3428449 L30.3096774,25.877841 C30.3096774,28.3631224 28.2992915,30.377841 25.8193548,30.377841 L22.9771018,30.377841 C22.8528377,30.377841 22.7521018,30.277105 22.7521018,30.152841 C22.7521018,30.0950138 22.7743664,30.0394068 22.8142754,29.9975588 Z" id="Combined-Shape" fill="#F6C943"></path>
                    <path d="M5.99353522,22.8645624 L9.61377715,26.3319643 C9.85323714,26.5719404 10.1333308,26.7463766 10.4318632,26.855273 C10.6786969,26.9488095 10.9462865,27 11.2258065,27 L21.911753,27 C22.0360171,27 22.136753,27.1007359 22.136753,27.225 C22.136753,27.2846226 22.1130882,27.3418075 22.0709564,27.3839947 L19.4134651,30.0449733 C19.2024444,30.2562709 18.9160727,30.375 18.6174485,30.375 L10.1032258,30.375 C7.62328912,30.375 5.61290323,28.3602814 5.61290323,25.875 L5.61290323,23.0270545 C5.61290323,22.9027904 5.71363916,22.8020545 5.83790323,22.8020545 C5.89589767,22.8020545 5.95165238,22.8244478 5.99353522,22.8645624 Z" id="Combined-Shape" fill="#7B8FEC"></path>
                    <path d="M13.1083053,6.00528217 L9.64724422,9.6344965 C9.40778423,9.87447257 9.23372312,10.1551699 9.12506089,10.4543457 C9.03172553,10.7017113 8.98064516,10.9698776 8.98064516,11.25 L8.98064516,21.9584907 C8.98064516,22.0827548 8.87990923,22.1834907 8.75564516,22.1834907 C8.69585471,22.1834907 8.638523,22.1596929 8.59630812,22.1173514 L5.94121803,19.4542993 C5.73096775,19.2434186 5.61290323,18.957781 5.61290323,18.6599961 L5.61290323,10.125 C5.61290323,7.63971863 7.62328912,5.625 10.1032258,5.625 L12.9454788,5.625 C13.0697429,5.625 13.1704788,5.72573593 13.1704788,5.85 C13.1704788,5.90782714 13.1482143,5.96343423 13.1083053,6.00528217 Z" id="Combined-Shape" fill="#D77EE9"></path>
                </g>
            </g>
        </g>
    </g>
</svg>
